<svg xmlns="http://www.w3.org/2000/svg" version="1.1" xmlns:xlink="http://www.w3.org/1999/xlink" xmlns:svgjs="http://svgjs.com/svgjs" width="1440" height="720" preserveAspectRatio="none" viewBox="0 0 1440 720"><g mask="url(&quot;#SvgjsMask1148&quot;)" fill="none"><path d="M548.2345069647846 286.16010279447477L629.5078814199092 273.2876648681134 569.5625373028048 157.81382214860733z" fill="rgba(56, 161, 105, 0.28)" class="triangle-float1"></path><path d="M1458.893,985.735C1524.046,988.145,1584.393,951.263,1617.175,894.906C1650.142,838.23,1653.66,766.714,1618.476,711.386C1585.414,659.394,1520.469,643.836,1458.893,646.001C1401.626,648.015,1346.572,672.508,1317.63,721.964C1288.407,771.901,1292.356,832.896,1319.672,883.901C1348.765,938.225,1397.311,983.457,1458.893,985.735" fill="rgba(56, 161, 105, 0.28)" class="triangle-float3"></path><path d="M141.106,763.318C194.22,766.61,245.502,736.062,270.132,688.889C293.262,644.588,280.372,591.556,252.415,550.131C227.825,513.695,185.024,499.564,141.106,497.703C92.673,495.651,36.75,498.172,12.164,539.951C-12.621,582.068,12.666,632.121,37.098,674.444C61.534,716.774,92.323,760.294,141.106,763.318" fill="rgba(56, 161, 105, 0.28)" class="triangle-float1"></path><path d="M1316.142,689.256C1335.871,689.328,1354.534,679.517,1364.416,662.441C1374.315,645.336,1373.745,624.13,1363.671,607.128C1353.79,590.452,1335.523,581.23,1316.142,580.967C1296.256,580.697,1276.397,588.659,1266.322,605.806C1256.128,623.156,1258.162,644.811,1268.477,662.089C1278.524,678.919,1296.541,689.184,1316.142,689.256" fill="rgba(56, 161, 105, 0.28)" class="triangle-float3"></path><path d="M175.23234748615607 142.94734360903288L69.0866611934396 194.71805394967936 227.00305782680255 249.09302990174936z" fill="rgba(56, 161, 105, 0.28)" class="triangle-float2"></path><path d="M1269.7036613772302 608.8129060678208L1174.916493284125 647.1094078500807 1279.7548300040676 770.1419090986086z" fill="rgba(56, 161, 105, 0.28)" class="triangle-float2"></path><path d="M1338.078,346.957C1379.2,347.899,1410.975,314.516,1430.513,278.319C1448.951,244.16,1451.578,204.196,1433.745,169.718C1414.277,132.078,1380.443,98.633,1338.078,99.6C1296.831,100.542,1267.81,136.855,1249.69,173.921C1233.941,206.136,1236.388,242.312,1252.7,274.245C1270.925,309.925,1298.024,346.039,1338.078,346.957" fill="rgba(56, 161, 105, 0.28)" class="triangle-float1"></path></g><defs><mask id="SvgjsMask1148"><rect width="1440" height="720" fill="#ffffff"></rect></mask><style>
            @keyframes float1 {
                0%{transform: translate(0, 0)}
                50%{transform: translate(-10px, 0)}
                100%{transform: translate(0, 0)}
            }

            .triangle-float1 {
                animation: float1 5s infinite;
            }

            @keyframes float2 {
                0%{transform: translate(0, 0)}
                50%{transform: translate(-5px, -5px)}
                100%{transform: translate(0, 0)}
            }

            .triangle-float2 {
                animation: float2 4s infinite;
            }

            @keyframes float3 {
                0%{transform: translate(0, 0)}
                50%{transform: translate(0, -10px)}
                100%{transform: translate(0, 0)}
            }

            .triangle-float3 {
                animation: float3 6s infinite;
            }
        </style></defs></svg>